grf_walk
version=1
nRows=54
nColumns=19
inDegrees=no
endheader
time	ground_force_r_vx	ground_force_r_vy	ground_force_r_vz	ground_force_r_px	ground_force_r_py	ground_force_r_pz	ground_torque_r_x	ground_torque_r_y	ground_torque_r_z	ground_force_l_vx	ground_force_l_vy	ground_force_l_vz	ground_force_l_px	ground_force_l_py	ground_force_l_pz	ground_torque_l_x	ground_torque_l_y	ground_torque_l_z
3.99986667	7.87912600	505.62059000	46.93282500	0.72998700	0.00095100	-0.68184900	-32.26434373	-4.40801866	51.58549294	0.00000000	0.00000000	0.00000000	0.00000000	0.00000000	0.00000000	0.00000000	0.00000000	0.00000000
4.00386653	9.86122300	508.36964800	47.69084800	0.72512600	0.00095300	-0.67938600	-31.18602386	-7.52433620	54.34203852	0.00000000	0.00000000	0.00000000	0.00000000	0.00000000	0.00000000	0.00000000	0.00000000	0.00000000
4.00786640	14.59041700	510.20499700	48.60309300	0.72191500	0.00094900	-0.68079000	-32.01479361	-7.17150086	56.17509236	0.00000000	0.00000000	0.00000000	0.00000000	0.00000000	0.00000000	0.00000000	0.00000000	0.00000000
4.01186627	14.89233200	516.00704700	50.57636000	0.72136100	0.00094900	-0.68020100	-32.07588934	-5.30647947	57.09594699	0.00000000	0.00000000	0.00000000	0.00000000	0.00000000	0.00000000	0.00000000	0.00000000	0.00000000
4.01586613	16.11196700	518.75485700	50.87662000	0.71570200	0.00094200	-0.68250400	-33.44221379	-3.41135664	60.33154472	0.00000000	0.00000000	0.00000000	0.00000000	0.00000000	0.00000000	0.00000000	0.00000000	0.00000000
4.01986600	15.65506100	517.22626700	49.50606200	0.71359300	0.00094300	-0.68135900	-32.75195868	-2.97909793	61.24392177	0.00000000	0.00000000	0.00000000	0.00000000	0.00000000	0.00000000	0.00000000	0.00000000	0.00000000
4.02386587	15.96040900	516.91089000	43.70780000	0.71364200	0.00094500	-0.67994800	-32.00292173	-3.76970616	61.18386312	0.00000000	0.00000000	0.00000000	0.00000000	0.00000000	0.00000000	0.00000000	0.00000000	0.00000000
4.02786573	19.62028600	520.87586000	41.25929700	0.71394600	0.00094200	-0.68175100	-33.18660579	-5.52221516	61.49829144	0.00000000	0.00000000	0.00000000	0.00000000	0.00000000	0.00000000	0.00000000	0.00000000	0.00000000
4.03186560	18.09337800	522.70550700	40.95084700	0.71085100	0.00094300	-0.68054400	-32.67270133	-5.19374586	63.33141861	0.00000000	0.00000000	0.00000000	0.00000000	0.00000000	0.00000000	0.00000000	0.00000000	0.00000000
4.03586547	19.00787500	524.54034900	42.77862300	0.70917400	0.00094000	-0.68144000	-33.25714547	-5.06829561	64.43254918	0.00000000	0.00000000	0.00000000	0.00000000	0.00000000	0.00000000	0.00000000	0.00000000	0.00000000
4.03986533	21.90755900	523.63546300	47.81612700	0.70418200	0.00094500	-0.67726200	-31.01203266	-4.58161279	66.93272150	0.00000000	0.00000000	0.00000000	0.00000000	0.00000000	0.00000000	0.00000000	0.00000000	0.00000000
4.04386520	22.66792400	528.21188300	46.89241100	0.70400500	0.00093700	-0.68136400	-33.44997800	-3.76102369	67.60988450	0.00000000	0.00000000	0.00000000	0.00000000	0.00000000	0.00000000	0.00000000	0.00000000	0.00000000
4.04786507	25.72019600	527.29561600	45.52028000	0.70181700	0.00094000	-0.67929900	-32.30169236	-6.69801965	68.65146776	0.00000000	0.00000000	0.00000000	0.00000000	0.00000000	0.00000000	0.00000000	0.00000000	0.00000000
4.05186493	26.17693000	529.12010100	41.70231300	0.69741700	0.00093800	-0.67880700	-32.15238227	-8.85218599	71.22144370	0.00000000	0.00000000	0.00000000	0.00000000	0.00000000	0.00000000	0.00000000	0.00000000	0.00000000
4.05586480	23.43206500	526.06298200	39.57154800	0.69734100	0.00093900	-0.67815900	-31.62681928	-7.46980805	70.84818687	0.00000000	0.00000000	0.00000000	0.00000000	0.00000000	0.00000000	0.00000000	0.00000000	0.00000000
4.05986467	24.65105100	529.11924200	41.70231400	0.69557100	0.00093800	-0.67811500	-31.78797254	-5.85175836	72.19266207	0.00000000	0.00000000	0.00000000	0.00000000	0.00000000	0.00000000	0.00000000	0.00000000	0.00000000
4.06386453	25.87038100	531.55819000	39.40912900	0.69618900	0.00093500	-0.68014800	-33.01683851	-3.00873473	72.19237507	0.00000000	0.00000000	0.00000000	0.00000000	0.00000000	0.00000000	0.00000000	0.00000000	0.00000000
4.06786440	28.15868400	532.47882500	41.54371600	0.69332500	0.00093900	-0.67715000	-31.47778125	-2.73313143	73.84100115	0.00000000	0.00000000	0.00000000	0.00000000	0.00000000	0.00000000	0.00000000	0.00000000	0.00000000
4.07186427	33.03806300	538.57989000	38.63362800	0.68490500	0.00092900	-0.67979500	-33.26217387	-4.13865047	79.22409068	0.00000000	0.00000000	0.00000000	0.00000000	0.00000000	0.00000000	0.00000000	0.00000000	0.00000000
4.07586413	35.32705200	538.27709300	39.24452200	0.68221500	0.00093100	-0.67821300	-32.38985584	-7.83767050	80.63355932	0.00000000	0.00000000	0.00000000	0.00000000	0.00000000	0.00000000	0.00000000	0.00000000	0.00000000
4.07986400	34.86705700	542.24520600	39.84777600	0.68363700	0.00093100	-0.67860700	-32.84225326	-7.84639456	80.45692263	0.00000000	0.00000000	0.00000000	0.00000000	0.00000000	0.00000000	0.00000000	0.00000000	0.00000000
4.08386387	37.00345900	541.94505400	41.98454700	0.68006300	0.00093000	-0.67770900	-32.33691911	-8.27347787	82.34895220	0.00000000	0.00000000	0.00000000	0.00000000	0.00000000	0.00000000	0.00000000	0.00000000	0.00000000
4.08786373	37.46105100	542.25048600	41.98400000	0.67553200	0.00092700	-0.67838100	-32.72059205	-6.31881093	84.84835608	0.00000000	0.00000000	0.00000000	0.00000000	0.00000000	0.00000000	0.00000000	0.00000000	0.00000000
4.09186360	40.96971400	543.77451500	39.84504000	0.67181300	0.00092500	-0.67835900	-32.80079951	-6.20368964	87.10887197	0.00000000	0.00000000	0.00000000	0.00000000	0.00000000	0.00000000	0.00000000	0.00000000	0.00000000
4.09586347	43.71509400	545.90955700	38.31533900	0.66986200	0.00092400	-0.67832800	-32.91317044	-5.50027116	88.51472947	0.00000000	0.00000000	0.00000000	0.00000000	0.00000000	0.00000000	0.00000000	0.00000000	0.00000000
4.09986333	45.39356100	545.90749800	36.63687300	0.67120400	0.00092600	-0.67743300	-32.42528788	-4.36822779	87.78020297	0.00000000	0.00000000	0.00000000	0.00000000	0.00000000	0.00000000	0.00000000	0.00000000	0.00000000
4.10386320	47.52958100	547.13185800	38.00797600	0.66486500	0.00092200	-0.67764100	-32.61035555	-6.56851735	91.44810605	0.00000000	0.00000000	0.00000000	0.00000000	0.00000000	0.00000000	0.00000000	0.00000000	0.00000000
4.10786307	46.00322500	547.12990700	37.39762700	0.65906300	0.00091900	-0.67764100	-32.61072455	-5.93018605	94.62088502	0.00000000	0.00000000	0.00000000	0.00000000	0.00000000	0.00000000	0.00000000	0.00000000	0.00000000
4.11186293	49.36012000	548.05196200	39.98997600	0.66258000	0.00092200	-0.67696100	-32.29197548	-7.20592064	92.85435022	0.00000000	0.00000000	0.00000000	0.00000000	0.00000000	0.00000000	0.00000000	0.00000000	0.00000000
4.11586280	52.41222100	547.44496500	40.90659100	0.65681700	0.00091900	-0.67674500	-32.13732359	-7.99828738	95.90668016	0.00000000	0.00000000	0.00000000	0.00000000	0.00000000	0.00000000	0.00000000	0.00000000	0.00000000
4.11986267	53.78534000	547.75309700	42.12674500	0.65189800	0.00091800	-0.67607300	-31.78716139	-8.15521584	98.65433472	0.00000000	0.00000000	0.00000000	0.00000000	0.00000000	0.00000000	0.00000000	0.00000000	0.00000000
4.12386253	54.24379000	546.52965100	40.45046400	0.64792500	0.00091700	-0.67519100	-31.23464114	-7.60988691	100.60442652	0.00000000	0.00000000	0.00000000	0.00000000	0.00000000	0.00000000	0.00000000	0.00000000	0.00000000
4.12786240	57.59952200	548.66858400	40.90440200	0.64830200	0.00091500	-0.67650800	-32.07886009	-8.27110474	100.79206557	0.00000000	0.00000000	0.00000000	0.00000000	0.00000000	0.00000000	0.00000000	0.00000000	0.00000000
4.13186227	58.21193300	545.00382200	39.23248800	0.64752600	0.00091500	-0.67610100	-31.64403592	-6.23212907	100.53847193	0.00000000	0.00000000	0.00000000	0.00000000	0.00000000	0.00000000	0.00000000	0.00000000	0.00000000
4.13586213	58.21176100	545.30763200	38.46900400	0.64214300	0.00091000	-0.67721700	-32.26998360	-6.63753524	103.53034399	0.00000000	0.00000000	0.00000000	0.00000000	0.00000000	0.00000000	0.00000000	0.00000000	0.00000000
4.13986200	60.65402600	543.78613200	40.15019500	0.63723600	0.00091000	-0.67544000	-31.21364714	-6.41460281	105.90803827	0.00000000	0.00000000	0.00000000	0.00000000	0.00000000	0.00000000	0.00000000	0.00000000	0.00000000
4.14386187	60.65505500	541.95644500	40.91640900	0.64176400	0.00091300	-0.67568200	-31.24002657	-5.78805884	103.09682964	0.00000000	0.00000000	0.00000000	0.00000000	0.00000000	0.00000000	0.00000000	0.00000000	0.00000000
4.14786173	64.01490600	536.77226500	41.99380000	0.63595900	0.00091200	-0.67414000	-30.11261065	-7.07125027	105.22740007	0.00000000	0.00000000	0.00000000	0.00000000	0.00000000	0.00000000	0.00000000	0.00000000	0.00000000
4.15186160	66.30441100	535.55503500	43.21668300	0.63095600	0.00090900	-0.67414900	-30.04803525	-8.64153067	107.66968130	0.00000000	0.00000000	0.00000000	0.00000000	0.00000000	0.00000000	0.00000000	0.00000000	0.00000000
4.15586147	66.30595600	532.80791200	42.91642100	0.62774900	0.00090700	-0.67462600	-30.14818696	-8.30747809	108.82525505	0.00000000	0.00000000	0.00000000	0.00000000	0.00000000	0.00000000	0.00000000	0.00000000	0.00000000
4.15986133	70.27667300	526.71114400	45.97909000	0.63003600	0.00091000	-0.67351400	-29.21687823	-8.64484944	106.37460352	0.00000000	0.00000000	0.00000000	0.00000000	0.00000000	0.00000000	0.00000000	0.00000000	0.00000000
4.16386120	67.22903500	519.38549500	46.14526000	0.62579800	0.00090700	-0.67379100	-28.95539103	-6.65026608	107.09234364	57.62927600	112.19210100	16.73691600	1.07458100	0.00148200	-0.41974600	-2.18977909	9.30640688	-27.88814483
4.16786107	69.21405100	516.94029500	43.40257100	0.62010700	0.00090200	-0.67451500	-29.19256499	-8.12375530	109.53273178	63.08124400	148.79621100	31.13912900	0.98168000	0.00134300	-0.39823200	0.30155663	7.36612121	-23.18094313
4.17186093	79.13308200	516.32651500	38.36826100	0.61773000	0.00089800	-0.67641200	-30.13761355	-7.69228664	110.62971514	48.42182900	158.54359100	32.83329200	0.92154400	0.00129800	-0.41213600	-1.87440036	0.18369015	-15.18093931
4.17586080	86.61572400	505.95203200	36.86093800	0.61602100	0.00090000	-0.67460300	-28.61686506	-7.37121477	109.27019184	7.97961800	163.38655900	29.33156300	0.94870600	0.00134300	-0.42145400	-3.44086194	-12.29448246	-20.10753748
4.17986067	83.72342000	493.75048900	40.85005700	0.61170600	0.00090000	-0.67322000	-27.24517569	-4.35436322	108.75817534	-24.40139600	191.75750500	13.20242600	0.96781000	0.00138600	-0.43428200	-6.49746011	-15.74131558	-27.26592317
4.18386053	71.21571500	484.90783700	48.95352400	0.61035600	0.00090100	-0.67201100	-26.16956158	-6.10070359	107.46597958	-27.46928600	206.08551400	20.55020000	1.02369200	0.00142200	-0.41769000	-3.58934800	6.58631932	-40.78707149
4.18786040	65.72873100	473.91516400	47.14213100	0.61297900	0.00090200	-0.67256100	-25.83680234	-6.49933663	103.78876358	-4.89130800	210.99937000	17.04858500	1.02500600	0.00145900	-0.43981700	-8.35517392	16.78837385	-42.01426419
4.19186027	79.16363500	462.01392200	43.80600600	0.61358600	0.00090700	-0.66970700	-23.86692882	-10.84201515	100.90900067	10.81150200	223.23434700	11.26946000	0.96296500	0.00138800	-0.43922300	-8.70367550	15.77764750	-30.59788550
4.19586013	91.98908300	447.66015100	33.91345400	0.59886100	0.00089800	-0.67050000	-23.48061505	-10.67831940	104.36594050	5.28504300	252.83482900	8.41794300	0.93949300	0.00133200	-0.42045400	-5.09574298	3.23495617	-28.74406567
4.19986000	93.36632100	440.63752600	31.48460700	0.59614000	0.00089000	-0.67382500	-24.57906929	-7.01182328	103.92150321	-7.40274300	273.28157000	-0.39924600	0.97533600	0.00137100	-0.42002100	-5.37011512	-13.72471574	-40.89177078
4.20385987	85.74465200	426.90799200	35.78163600	0.60132600	0.00089500	-0.67278800	-23.37175126	-4.15338799	98.46381454	-29.68275400	274.76224100	12.11536100	0.99118900	0.00137300	-0.41029900	-2.72498215	-16.78784358	-45.48153016
4.20785973	73.54950400	404.93301400	38.87271000	0.60396400	0.00090100	-0.67050000	-21.24408436	-0.65426068	92.32062304	-49.97397500	271.67513100	19.89286000	0.98266200	0.00139500	-0.42985300	-8.01550390	-10.62606742	-42.64951981
4.21185960	65.62815100	381.42405200	35.55782600	0.59720700	0.00090800	-0.66441800	-17.69053431	-2.73039947	89.54209642	-49.52616700	280.51614500	25.85803000	0.99852900	0.00141500	-0.43121800	-8.68045928	7.59956827	-48.46101498
